<?xml version="1.0" encoding="UTF-8" standalone="no"?>
<!-- Created with Inkscape (http://www.inkscape.org/) -->

<svg
   xmlns:dc="http://purl.org/dc/elements/1.1/"
   xmlns:cc="http://creativecommons.org/ns#"
   xmlns:rdf="http://www.w3.org/1999/02/22-rdf-syntax-ns#"
   xmlns:svg="http://www.w3.org/2000/svg"
   xmlns="http://www.w3.org/2000/svg"
   xmlns:sodipodi="http://sodipodi.sourceforge.net/DTD/sodipodi-0.dtd"
   xmlns:inkscape="http://www.inkscape.org/namespaces/inkscape"
   width="113.77097mm"
   height="129.59111mm"
   viewBox="0 0 113.77097 129.59111"
   version="1.1"
   id="svg8"
   inkscape:version="0.92.4 (5da689c313, 2019-01-14)">
  <defs
     id="defs2" />
  <sodipodi:namedview
     id="base"
     pagecolor="#ffffff"
     bordercolor="#666666"
     borderopacity="1.0"
     inkscape:pageopacity="0.0"
     inkscape:pageshadow="2"
     inkscape:zoom="0.7"
     inkscape:cx="-340.89742"
     inkscape:cy="530.85756"
     inkscape:document-units="mm"
     inkscape:current-layer="g909"
     showgrid="false"
     showguides="false"
     inkscape:window-width="1920"
     inkscape:window-height="1001"
     inkscape:window-x="-9"
     inkscape:window-y="-9"
     inkscape:window-maximized="1" />
  <metadata
     id="metadata5">
    <rdf:RDF>
      <cc:Work
         rdf:about="">
        <dc:format>image/svg+xml</dc:format>
        <dc:type
           rdf:resource="http://purl.org/dc/dcmitype/StillImage" />
        <dc:title></dc:title>
      </cc:Work>
    </rdf:RDF>
  </metadata>
  <g
     inkscape:label="Layer 1"
     inkscape:groupmode="layer"
     id="layer1"
     transform="translate(-45.546063,-44.700972)">
    <g
       id="g971"
       transform="matrix(0.26458333,0,0,0.26458333,45.546063,44.700815)">
      <g
         id="g909">
	<polygon
   id="polygon895"
   points="361.219,34.142 342.05,53.311 342.05,73.807 361.219,54.639 "
   style="fill:#4b006e;fill-opacity:1" />

	<polygon
   id="polygon897"
   points="375.361,68.781 356.193,87.949 376.689,87.949 395.857,68.781 "
   style="fill:#ffffff;fill-opacity:1" />

	<path
   id="path899"
   d="m 74.552,256.345 c 0,54.646 44.458,99.103 99.104,99.103 54.646,0 99.104,-44.458 99.104,-99.103 0,-23.729 -8.387,-45.534 -22.346,-62.615 l -24.618,24.618 c 7.796,10.669 12.413,23.801 12.413,37.996 0,35.594 -28.958,64.552 -64.552,64.552 -35.594,0 -64.552,-28.958 -64.552,-64.552 0,-35.594 28.958,-64.552 64.552,-64.552 14.196,0 27.328,4.617 37.996,12.413 l 24.618,-24.618 c -17.081,-13.96 -38.886,-22.346 -62.615,-22.346 -54.647,0 -99.104,44.458 -99.104,99.104 z"
   style="fill:#ffffff"
   inkscape:connector-curvature="0" />

	<path
   id="path901"
   d="m 289.091,155.051 -24.486,24.486 c 17.553,20.752 28.154,47.563 28.154,76.807 0,65.674 -53.43,119.103 -119.104,119.103 -65.674,0 -119.104,-53.43 -119.104,-119.103 0,-65.674 53.43,-119.104 119.104,-119.104 29.244,0 56.055,10.601 76.807,28.154 l 24.486,-24.486 C 247.884,117.13 212.426,102.689 173.654,102.689 88.93,102.69 20,171.619 20,256.345 20,341.071 88.93,410 173.655,410 258.38,410 327.31,341.07 327.31,256.345 c 0,-38.772 -14.441,-74.23 -38.219,-101.294 z"
   style="fill:#ffffff"
   inkscape:connector-curvature="0" />

	<path
   id="path903"
   d="m 173.655,137.241 c -65.674,0 -119.104,53.43 -119.104,119.104 0,65.674 53.43,119.103 119.104,119.103 65.674,0 119.104,-53.43 119.104,-119.103 0,-29.245 -10.601,-56.055 -28.154,-76.807 l -14.193,14.193 c 13.96,17.081 22.346,38.886 22.346,62.615 0,54.646 -44.457,99.103 -99.104,99.103 -54.647,0 -99.104,-44.458 -99.104,-99.103 0,-54.645 44.458,-99.104 99.104,-99.104 23.729,0 45.534,8.386 62.615,22.346 l 14.193,-14.193 C 229.711,147.842 202.9,137.241 173.655,137.241 Z"
   style="fill:#4b006e;fill-opacity:1"
   inkscape:connector-curvature="0" />

	<path
   id="path905"
   d="m 129.104,256.345 c 0,24.566 19.986,44.552 44.552,44.552 24.566,0 44.552,-19.985 44.552,-44.552 0,-8.669 -2.497,-16.761 -6.797,-23.612 l -30.683,30.683 c -1.953,1.952 -4.512,2.929 -7.071,2.929 -2.559,0 -5.119,-0.977 -7.071,-2.929 -3.905,-3.905 -3.905,-10.237 0,-14.143 l 30.683,-30.683 c -6.851,-4.3 -14.943,-6.797 -23.612,-6.797 -24.568,0 -44.553,19.985 -44.553,44.552 z"
   style="fill:#4b006e;fill-opacity:1"
   inkscape:connector-curvature="0" />

	<path
   id="path907"
   d="M 429.239,54.954 C 427.691,51.218 424.045,48.781 420,48.781 H 381.219 V 10 c 0,-4.045 -2.436,-7.691 -6.173,-9.239 -3.738,-1.546 -8.038,-0.691 -10.898,2.168 L 324.98,42.097 c -1.875,1.876 -2.929,4.419 -2.929,7.071 V 93.807 L 289.198,126.66 C 257.37,98.238 216.722,82.69 173.655,82.69 127.234,82.69 83.616,100.744 50.835,133.525 18.054,166.306 0,209.924 0,256.345 c 0,46.421 18.054,90.039 50.835,122.82 32.781,32.781 76.399,50.835 122.82,50.835 46.421,0 90.039,-18.054 122.82,-50.835 32.781,-32.781 50.835,-76.399 50.835,-122.82 0,-43.067 -15.549,-83.715 -43.971,-115.542 l 32.854,-32.854 h 44.638 c 2.652,0 5.196,-1.054 7.071,-2.929 l 39.169,-39.168 c 2.86,-2.86 3.716,-7.161 2.168,-10.898 z M 173.655,410 C 88.93,410 20,341.07 20,256.345 20,171.62 88.93,102.69 173.655,102.69 c 38.772,0 74.229,14.441 101.294,38.219 l -24.486,24.486 -14.193,14.193 -24.618,24.618 c -10.668,-7.796 -23.801,-12.413 -37.996,-12.413 -35.594,0 -64.552,28.958 -64.552,64.552 0,35.594 28.958,64.552 64.552,64.552 35.594,0 64.552,-28.958 64.552,-64.552 0,-14.196 -4.617,-27.328 -12.413,-37.996 l 24.618,-24.618 14.193,-14.193 24.486,-24.486 c 23.778,27.064 38.219,62.522 38.219,101.294 C 327.31,341.07 258.381,410 173.655,410 Z m -7.071,-160.727 c -3.905,3.905 -3.905,10.237 0,14.143 1.953,1.952 4.512,2.929 7.071,2.929 2.559,0 5.119,-0.977 7.071,-2.929 l 30.683,-30.683 c 4.3,6.851 6.797,14.943 6.797,23.612 0,24.566 -19.986,44.552 -44.552,44.552 -24.566,0 -44.552,-19.985 -44.552,-44.552 0,-24.567 19.986,-44.552 44.552,-44.552 8.669,0 16.761,2.497 23.612,6.797 z M 356.193,87.949 375.361,68.781 h 20.496 L 376.689,87.949 Z M 342.05,53.311 361.218,34.142 V 54.639 L 342.05,73.807 Z"
   inkscape:connector-curvature="0" />

<text
   xml:space="preserve"
   style="font-style:normal;font-variant:normal;font-weight:bold;font-stretch:normal;font-size:67.94441223px;line-height:1.25;font-family:'Eras Demi ITC';-inkscape-font-specification:'Eras Demi ITC Bold';letter-spacing:4.00000008px;word-spacing:0px;fill:#000000;fill-opacity:1;stroke:none;stroke-width:1.69861031;"
   x="35.97974"
   y="427.45132"
   id="text975"
   transform="scale(0.87447802,1.1435393)"><tspan
     sodipodi:role="line"
     id="tspan973"
     x="35.97974"
     y="427.45132"
     style="stroke-width:1.69861031;-inkscape-font-specification:'Eras Demi ITC Bold';font-family:'Eras Demi ITC';font-weight:bold;font-style:normal;font-stretch:normal;font-variant:normal;letter-spacing:4.00000008px;">ArcherDB</tspan></text>
</g>
      <g
         id="g911">
</g>
      <g
         id="g913">
</g>
      <g
         id="g915">
</g>
      <g
         id="g917">
</g>
      <g
         id="g919">
</g>
      <g
         id="g921">
</g>
      <g
         id="g923">
</g>
      <g
         id="g925">
</g>
      <g
         id="g927">
</g>
      <g
         id="g929">
</g>
      <g
         id="g931">
</g>
      <g
         id="g933">
</g>
      <g
         id="g935">
</g>
      <g
         id="g937">
</g>
      <g
         id="g939">
</g>
    </g>
  </g>
</svg>
