<?xml version="1.0" encoding="UTF-8" standalone="no"?>
<!-- Created with Inkscape (http://www.inkscape.org/) -->

<svg
   xmlns:dc="http://purl.org/dc/elements/1.1/"
   xmlns:cc="http://creativecommons.org/ns#"
   xmlns:rdf="http://www.w3.org/1999/02/22-rdf-syntax-ns#"
   xmlns:svg="http://www.w3.org/2000/svg"
   xmlns="http://www.w3.org/2000/svg"
   xmlns:sodipodi="http://sodipodi.sourceforge.net/DTD/sodipodi-0.dtd"
   xmlns:inkscape="http://www.inkscape.org/namespaces/inkscape"
   width="70mm"
   height="70mm"
   viewBox="0 0 69.999992 69.999998"
   version="1.1"
   id="svg8"
   inkscape:version="0.92.4 (5da689c313, 2019-01-14)"
   sodipodi:docname="logo_only.svg">
  <defs
     id="defs2" />
  <sodipodi:namedview
     id="base"
     pagecolor="#ffffff"
     bordercolor="#666666"
     borderopacity="1.0"
     inkscape:pageopacity="0.0"
     inkscape:pageshadow="2"
     inkscape:zoom="3.959798"
     inkscape:cx="98.86919"
     inkscape:cy="152.41488"
     inkscape:document-units="mm"
     inkscape:current-layer="g909"
     showgrid="false"
     showguides="false"
     inkscape:window-width="1920"
     inkscape:window-height="1001"
     inkscape:window-x="-9"
     inkscape:window-y="-9"
     inkscape:window-maximized="1" />
  <metadata
     id="metadata5">
    <rdf:RDF>
      <cc:Work
         rdf:about="">
        <dc:format>image/svg+xml</dc:format>
        <dc:type
           rdf:resource="http://purl.org/dc/dcmitype/StillImage" />
        <dc:title></dc:title>
      </cc:Work>
    </rdf:RDF>
  </metadata>
  <g
     inkscape:label="Layer 1"
     inkscape:groupmode="layer"
     id="layer1"
     transform="translate(-45.546063,-88.471649)">
    <g
       id="g971"
       transform="matrix(0.26458333,0,0,0.26458333,45.546063,44.700815)">
      <g
         id="g909">
        <polygon
           id="polygon895"
           points="342.05,53.311 342.05,73.807 361.219,54.639 361.219,34.142 "
           style="fill:#000080;fill-opacity:1;stroke-width:1.62529969"
           transform="matrix(0.61526948,0,0,0.61527277,0,165.4327)" />
        <polygon
           id="polygon897"
           points="356.193,87.949 376.689,87.949 395.857,68.781 375.361,68.781 "
           style="fill:#ffffff;fill-opacity:1;stroke-width:1.62529969"
           transform="matrix(0.61526948,0,0,0.61527277,0,165.4327)" />
        <path
           id="path899"
           d="m 45.86957,323.15482 c 0,33.62219 27.35365,60.97537 60.97567,60.97537 33.62201,0 60.97566,-27.35379 60.97566,-60.97537 0,-14.59981 -5.16026,-28.01584 -13.74881,-38.5253 l -15.1467,15.14677 c 4.79663,6.56435 7.63734,14.64412 7.63734,23.37792 0,21.90001 -17.81697,39.71708 -39.71688,39.71708 -21.8999,0 -39.716874,-17.81707 -39.716874,-39.71708 0,-21.90003 17.816974,-39.7171 39.716874,-39.7171 8.73436,0 16.81408,2.84072 23.37778,7.63738 l 15.1467,-15.14678 c -10.50941,-8.58921 -23.92537,-13.74889 -38.52509,-13.74889 -33.622635,0 -60.97567,27.35381 -60.97567,60.976 z"
           style="fill:#ffffff;stroke-width:1"
           inkscape:connector-curvature="0" />
        <path
           id="path901"
           d="m 177.86886,260.83138 -15.06548,15.06556 c 10.79982,12.76814 17.32229,29.26422 17.32229,47.25727 0,40.40742 -32.87384,73.28083 -73.28104,73.28083 -40.407217,0 -73.281065,-32.87403 -73.281065,-73.28083 0,-40.40744 32.873848,-73.28146 73.281065,-73.28146 17.99293,0 34.48892,6.52251 47.25699,17.32239 l 15.06549,-15.06557 c -16.65165,-14.62996 -38.46788,-23.51511 -62.32311,-23.51511 -52.128085,6.2e-4 -94.53861,42.41075 -94.53861,94.54036 0,52.1296 42.410525,94.53973 94.53924,94.53973 52.1287,0 94.53922,-42.41074 94.53922,-94.53973 0,-23.85536 -8.8851,-45.67171 -23.51499,-62.32344 z"
           style="fill:#ffffff;stroke-width:1"
           inkscape:connector-curvature="0" />
        <path
           id="path903"
           d="m 106.84463,249.87337 c -40.407217,0 -73.281065,32.87402 -73.281065,73.28145 0,40.40742 32.873848,73.28083 73.281065,73.28083 40.4072,0 73.28104,-32.87402 73.28104,-73.28083 0,-17.99366 -6.52247,-34.48912 -17.32229,-47.25726 l -8.73252,8.73256 c 8.58917,10.50948 13.74881,23.9255 13.74881,38.52531 0,33.6222 -27.35304,60.97538 -60.97567,60.97538 -33.622625,0 -60.97566,-27.3538 -60.97566,-60.97538 0,-33.62158 27.35365,-60.97599 60.97566,-60.97599 14.59974,0 28.01568,5.15967 38.5251,13.74888 l 8.73252,-8.73256 c -12.76746,-10.79989 -29.26345,-17.32239 -47.25699,-17.32239 z"
           style="fill:#000080;fill-opacity:1;stroke-width:1"
           inkscape:connector-curvature="0" />
        <path
           id="path905"
           d="m 79.43375,323.15482 c 0,15.11478 12.296777,27.41163 27.41149,27.41163 15.11471,0 27.41148,-12.29623 27.41148,-27.41163 0,-5.33381 -1.53632,-10.31259 -4.18198,-14.52782 l -18.87832,18.87842 c -1.20162,1.201 -2.77609,1.80213 -4.35057,1.80213 -1.57447,0 -3.14956,-0.60113 -4.35057,-1.80213 -2.40263,-2.40265 -2.40263,-6.29855 0,-8.70181 L 121.3736,299.9252 c -4.21522,-2.64568 -9.19398,-4.18202 -14.52775,-4.18202 -15.115939,0 -27.4121,12.29623 -27.4121,27.41164 z"
           style="fill:#000080;fill-opacity:1;stroke-width:1"
           inkscape:connector-curvature="0" />
        <path
           id="path907"
           d="m 264.09839,199.24442 c -0.95243,-2.29866 -3.19571,-3.79809 -5.68449,-3.79809 h -23.86083 v -23.86089 c 0,-2.48878 -1.4988,-4.73206 -3.79807,-5.68451 -2.29988,-0.95121 -4.94555,-0.42514 -6.70522,1.33391 l -24.09894,24.09901 c -1.15364,1.15425 -1.80214,2.71889 -1.80214,4.3506 v 27.46516 l -20.2135,20.21355 c -19.58286,-17.48727 -44.59239,-27.05353 -71.09028,-27.05353 -28.561502,0 -55.398404,11.10813 -75.567608,31.27738 C 11.108106,267.75628 0,294.59324 0,323.15482 c 0,28.56158 11.108106,55.39854 31.277312,75.5678 20.169204,20.16926 47.006106,31.2774 75.567608,31.2774 28.56151,0 55.39841,-11.10814 75.56761,-31.2774 20.1692,-20.16926 31.27731,-47.00622 31.27731,-75.5678 0,-26.49795 -9.56685,-51.50756 -27.05409,-71.08985 l 20.21412,-20.21417 h 27.46448 c 1.63169,0 3.19695,-0.6485 4.35058,-1.80214 l 24.09956,-24.099 c 1.75967,-1.75969 2.28635,-4.40597 1.3339,-6.70524 z M 106.84492,417.69455 c -52.128852,0 -94.539496,-42.41074 -94.539496,-94.53973 0,-52.12899 42.410644,-94.53974 94.539496,-94.53974 23.85529,0 45.67096,8.88515 62.32328,23.51511 l -15.06553,15.06557 -8.73255,8.73256 -15.14674,15.14679 c -6.56371,-4.79667 -14.64406,-7.63738 -23.37784,-7.63738 -21.899965,0 -39.716988,17.81707 -39.716988,39.71709 0,21.90002 17.817023,39.71709 39.716988,39.71709 21.89996,0 39.71698,-17.81707 39.71698,-39.71709 0,-8.73441 -2.8407,-16.81418 -7.63736,-23.37791 l 15.14674,-15.14679 8.73255,-8.73256 15.06553,-15.06557 c 14.62992,16.65174 23.51506,38.46809 23.51506,62.32344 -6.2e-4,52.12838 -42.41065,94.53912 -94.54012,94.53912 z m -4.35058,-98.89094 c -2.40263,2.40264 -2.40263,6.29854 0,8.70181 1.20162,1.201 2.7761,1.80213 4.35058,1.80213 1.57447,0 3.14957,-0.60113 4.35059,-1.80213 L 130.07387,308.627 c 2.64566,4.21523 4.182,9.19401 4.182,14.52782 0,15.11478 -12.29681,27.41163 -27.41157,27.41163 -15.114746,0 -27.411559,-12.29623 -27.411559,-27.41163 0,-15.11541 12.296813,-27.41164 27.411559,-27.41164 5.33379,0 10.31256,1.53634 14.52779,4.18202 z m 116.66095,-99.25827 11.79352,-11.79355 h 12.6106 l -11.79352,11.79355 z m -8.70178,-21.31182 11.79352,-11.79416 v 12.61124 l -11.79352,11.79356 z"
           inkscape:connector-curvature="0"
           style="stroke-width:1" />
      </g>
      <g
         id="g911" />
      <g
         id="g913" />
      <g
         id="g915" />
      <g
         id="g917" />
      <g
         id="g919" />
      <g
         id="g921" />
      <g
         id="g923" />
      <g
         id="g925" />
      <g
         id="g927" />
      <g
         id="g929" />
      <g
         id="g931" />
      <g
         id="g933" />
      <g
         id="g935" />
      <g
         id="g937" />
      <g
         id="g939" />
    </g>
  </g>
</svg>
